<svg width="860" height="200" viewBox="0 0 860 200" xmlns="http://www.w3.org/2000/svg">
  <defs>
    <linearGradient id="bg" x1="0%" y1="0%" x2="100%" y2="100%">
      <stop offset="0%" stop-color="#020617"/>
      <stop offset="40%" stop-color="#0f172a"/>
      <stop offset="100%" stop-color="#1e1b4b"/>
    </linearGradient>
  </defs>
  <rect x="1" y="1" width="858" height="198" rx="20" fill="url(#bg)" stroke="#818cf866" stroke-width="1.5"/>
  <text x="30" y="38" font-family="sans-serif" font-size="18" font-weight="700" fill="#818cf8">Contribution Activity</text>
  <text x="30" y="58" font-family="sans-serif" font-size="12" fill="#a5b4fc">845 contributions in the last year</text>
  <rect x="30" y="70" width="11" height="11" rx="2" fill="#818cf814"/><rect x="30" y="84" width="11" height="11" rx="2" fill="#818cf814"/><rect x="30" y="98" width="11" height="11" rx="2" fill="#818cf814"/><rect x="30" y="112" width="11" height="11" rx="2" fill="#818cf814"/><rect x="30" y="126" width="11" height="11" rx="2" fill="#818cf814"/><rect x="30" y="140" width="11" height="11" rx="2" fill="#818cf814"/><rect x="30" y="154" width="11" height="11" rx="2" fill="#818cf814"/><rect x="44" y="70" width="11" height="11" rx="2" fill="#818cf814"/><rect x="44" y="84" width="11" height="11" rx="2" fill="#818cf814"/><rect x="44" y="98" width="11" height="11" rx="2" fill="#818cf814"/><rect x="44" y="112" width="11" height="11" rx="2" fill="#818cf814"/><rect x="44" y="126" width="11" height="11" rx="2" fill="#818cf814"/><rect x="44" y="140" width="11" height="11" rx="2" fill="#818cf814"/><rect x="44" y="154" width="11" height="11" rx="2" fill="#818cf814"/><rect x="58" y="70" width="11" height="11" rx="2" fill="#818cf814"/><rect x="58" y="84" width="11" height="11" rx="2" fill="#818cf814"/><rect x="58" y="98" width="11" height="11" rx="2" fill="#818cf814"/><rect x="58" y="112" width="11" height="11" rx="2" fill="#818cf814"/><rect x="58" y="126" width="11" height="11" rx="2" fill="#818cf814"/><rect x="58" y="140" width="11" height="11" rx="2" fill="#818cf814"/><rect x="58" y="154" width="11" height="11" rx="2" fill="#818cf814"/><rect x="72" y="70" width="11" height="11" rx="2" fill="#818cf814"/><rect x="72" y="84" width="11" height="11" rx="2" fill="#818cf814"/><rect x="72" y="98" width="11" height="11" rx="2" fill="#818cf814"/><rect x="72" y="112" width="11" height="11" rx="2" fill="#818cf814"/><rect x="72" y="126" width="11" height="11" rx="2" fill="#818cf814"/><rect x="72" y="140" width="11" height="11" rx="2" fill="#818cf814"/><rect x="72" y="154" width="11" height="11" rx="2" fill="#818cf814"/><rect x="86" y="70" width="11" height="11" rx="2" fill="#818cf814"/><rect x="86" y="84" width="11" height="11" rx="2" fill="#818cf814"/><rect x="86" y="98" width="11" height="11" rx="2" fill="#818cf814"/><rect x="86" y="112" width="11" height="11" rx="2" fill="#818cf814"/><rect x="86" y="126" width="11" height="11" rx="2" fill="#818cf814"/><rect x="86" y="140" width="11" height="11" rx="2" fill="#818cf814"/><rect x="86" y="154" width="11" height="11" rx="2" fill="#818cf814"/><rect x="100" y="70" width="11" height="11" rx="2" fill="#818cf814"/><rect x="100" y="84" width="11" height="11" rx="2" fill="#818cf814"/><rect x="100" y="98" width="11" height="11" rx="2" fill="#818cf814"/><rect x="100" y="112" width="11" height="11" rx="2" fill="#818cf814"/><rect x="100" y="126" width="11" height="11" rx="2" fill="#818cf814"/><rect x="100" y="140" width="11" height="11" rx="2" fill="#818cf814"/><rect x="100" y="154" width="11" height="11" rx="2" fill="#818cf814"/><rect x="114" y="70" width="11" height="11" rx="2" fill="#818cf814"/><rect x="114" y="84" width="11" height="11" rx="2" fill="#818cf814"/><rect x="114" y="98" width="11" height="11" rx="2" fill="#818cf814"/><rect x="114" y="112" width="11" height="11" rx="2" fill="#818cf814"/><rect x="114" y="126" width="11" height="11" rx="2" fill="#818cf814"/><rect x="114" y="140" width="11" height="11" rx="2" fill="#818cf814"/><rect x="114" y="154" width="11" height="11" rx="2" fill="#818cf814"/><rect x="128" y="70" width="11" height="11" rx="2" fill="#818cf814"/><rect x="128" y="84" width="11" height="11" rx="2" fill="#818cf814"/><rect x="128" y="98" width="11" height="11" rx="2" fill="#818cf814"/><rect x="128" y="112" width="11" height="11" rx="2" fill="#818cf814"/><rect x="128" y="126" width="11" height="11" rx="2" fill="#818cf814"/><rect x="128" y="140" width="11" height="11" rx="2" fill="#818cf814"/><rect x="128" y="154" width="11" height="11" rx="2" fill="#818cf814"/><rect x="142" y="70" width="11" height="11" rx="2" fill="#818cf814"/><rect x="142" y="84" width="11" height="11" rx="2" fill="#818cf814"/><rect x="142" y="98" width="11" height="11" rx="2" fill="#818cf814"/><rect x="142" y="112" width="11" height="11" rx="2" fill="#818cf814"/><rect x="142" y="126" width="11" height="11" rx="2" fill="#818cf814"/><rect x="142" y="140" width="11" height="11" rx="2" fill="#818cf814"/><rect x="142" y="154" width="11" height="11" rx="2" fill="#818cf814"/><rect x="156" y="70" width="11" height="11" rx="2" fill="#818cf814"/><rect x="156" y="84" width="11" height="11" rx="2" fill="#818cf814"/><rect x="156" y="98" width="11" height="11" rx="2" fill="#818cf814"/><rect x="156" y="112" width="11" height="11" rx="2" fill="#818cf814"/><rect x="156" y="126" width="11" height="11" rx="2" fill="#818cf814"/><rect x="156" y="140" width="11" height="11" rx="2" fill="#818cf814"/><rect x="156" y="154" width="11" height="11" rx="2" fill="#818cf814"/><rect x="170" y="70" width="11" height="11" rx="2" fill="#818cf814"/><rect x="170" y="84" width="11" height="11" rx="2" fill="#818cf814"/><rect x="170" y="98" width="11" height="11" rx="2" fill="#818cf814"/><rect x="170" y="112" width="11" height="11" rx="2" fill="#818cf814"/><rect x="170" y="126" width="11" height="11" rx="2" fill="#818cf814"/><rect x="170" y="140" width="11" height="11" rx="2" fill="#818cf814"/><rect x="170" y="154" width="11" height="11" rx="2" fill="#818cf814"/><rect x="184" y="70" width="11" height="11" rx="2" fill="#818cf814"/><rect x="184" y="84" width="11" height="11" rx="2" fill="#818cf814"/><rect x="184" y="98" width="11" height="11" rx="2" fill="#818cf814"/><rect x="184" y="112" width="11" height="11" rx="2" fill="#818cf814"/><rect x="184" y="126" width="11" height="11" rx="2" fill="#818cf814"/><rect x="184" y="140" width="11" height="11" rx="2" fill="#818cf814"/><rect x="184" y="154" width="11" height="11" rx="2" fill="#818cf814"/><rect x="198" y="70" width="11" height="11" rx="2" fill="#818cf814"/><rect x="198" y="84" width="11" height="11" rx="2" fill="#818cf814"/><rect x="198" y="98" width="11" height="11" rx="2" fill="#818cf814"/><rect x="198" y="112" width="11" height="11" rx="2" fill="#818cf814"/><rect x="198" y="126" width="11" height="11" rx="2" fill="#818cf814"/><rect x="198" y="140" width="11" height="11" rx="2" fill="#818cf814"/><rect x="198" y="154" width="11" height="11" rx="2" fill="#818cf814"/><rect x="212" y="70" width="11" height="11" rx="2" fill="#818cf814"/><rect x="212" y="84" width="11" height="11" rx="2" fill="#818cf814"/><rect x="212" y="98" width="11" height="11" rx="2" fill="#818cf814"/><rect x="212" y="112" width="11" height="11" rx="2" fill="#818cf814"/><rect x="212" y="126" width="11" height="11" rx="2" fill="#818cf814"/><rect x="212" y="140" width="11" height="11" rx="2" fill="#818cf814"/><rect x="212" y="154" width="11" height="11" rx="2" fill="#818cf814"/><rect x="226" y="70" width="11" height="11" rx="2" fill="#818cf814"/><rect x="226" y="84" width="11" height="11" rx="2" fill="#818cf814"/><rect x="226" y="98" width="11" height="11" rx="2" fill="#818cf814"/><rect x="226" y="112" width="11" height="11" rx="2" fill="#818cf814"/><rect x="226" y="126" width="11" height="11" rx="2" fill="#818cf814"/><rect x="226" y="140" width="11" height="11" rx="2" fill="#818cf814"/><rect x="226" y="154" width="11" height="11" rx="2" fill="#818cf814"/><rect x="240" y="70" width="11" height="11" rx="2" fill="#818cf814"/><rect x="240" y="84" width="11" height="11" rx="2" fill="#818cf814"/><rect x="240" y="98" width="11" height="11" rx="2" fill="#818cf814"/><rect x="240" y="112" width="11" height="11" rx="2" fill="#818cf814"/><rect x="240" y="126" width="11" height="11" rx="2" fill="#818cf814"/><rect x="240" y="140" width="11" height="11" rx="2" fill="#818cf814"/><rect x="240" y="154" width="11" height="11" rx="2" fill="#818cf814"/><rect x="254" y="70" width="11" height="11" rx="2" fill="#818cf814"/><rect x="254" y="84" width="11" height="11" rx="2" fill="#818cf814"/><rect x="254" y="98" width="11" height="11" rx="2" fill="#818cf814"/><rect x="254" y="112" width="11" height="11" rx="2" fill="#818cf814"/><rect x="254" y="126" width="11" height="11" rx="2" fill="#818cf814"/><rect x="254" y="140" width="11" height="11" rx="2" fill="#818cf814"/><rect x="254" y="154" width="11" height="11" rx="2" fill="#818cf814"/><rect x="268" y="70" width="11" height="11" rx="2" fill="#818cf814"/><rect x="268" y="84" width="11" height="11" rx="2" fill="#818cf814"/><rect x="268" y="98" width="11" height="11" rx="2" fill="#818cf814"/><rect x="268" y="112" width="11" height="11" rx="2" fill="#818cf814"/><rect x="268" y="126" width="11" height="11" rx="2" fill="#818cf814"/><rect x="268" y="140" width="11" height="11" rx="2" fill="#818cf814"/><rect x="268" y="154" width="11" height="11" rx="2" fill="#818cf814"/><rect x="282" y="70" width="11" height="11" rx="2" fill="#818cf814"/><rect x="282" y="84" width="11" height="11" rx="2" fill="#818cf814"/><rect x="282" y="98" width="11" height="11" rx="2" fill="#818cf814"/><rect x="282" y="112" width="11" height="11" rx="2" fill="#818cf814"/><rect x="282" y="126" width="11" height="11" rx="2" fill="#818cf814"/><rect x="282" y="140" width="11" height="11" rx="2" fill="#818cf814"/><rect x="282" y="154" width="11" height="11" rx="2" fill="#818cf814"/><rect x="296" y="70" width="11" height="11" rx="2" fill="#818cf814"/><rect x="296" y="84" width="11" height="11" rx="2" fill="#818cf814"/><rect x="296" y="98" width="11" height="11" rx="2" fill="#818cf814"/><rect x="296" y="112" width="11" height="11" rx="2" fill="#818cf814"/><rect x="296" y="126" width="11" height="11" rx="2" fill="#818cf814"/><rect x="296" y="140" width="11" height="11" rx="2" fill="#818cf814"/><rect x="296" y="154" width="11" height="11" rx="2" fill="#818cf814"/><rect x="310" y="70" width="11" height="11" rx="2" fill="#818cf814"/><rect x="310" y="84" width="11" height="11" rx="2" fill="#818cf814"/><rect x="310" y="98" width="11" height="11" rx="2" fill="#818cf814"/><rect x="310" y="112" width="11" height="11" rx="2" fill="#818cf814"/><rect x="310" y="126" width="11" height="11" rx="2" fill="#818cf814"/><rect x="310" y="140" width="11" height="11" rx="2" fill="#818cf814"/><rect x="310" y="154" width="11" height="11" rx="2" fill="#818cf814"/><rect x="324" y="70" width="11" height="11" rx="2" fill="#818cf814"/><rect x="324" y="84" width="11" height="11" rx="2" fill="#818cf814"/><rect x="324" y="98" width="11" height="11" rx="2" fill="#818cf814"/><rect x="324" y="112" width="11" height="11" rx="2" fill="#818cf814"/><rect x="324" y="126" width="11" height="11" rx="2" fill="#818cf814"/><rect x="324" y="140" width="11" height="11" rx="2" fill="#818cf814"/><rect x="324" y="154" width="11" height="11" rx="2" fill="#818cf814"/><rect x="338" y="70" width="11" height="11" rx="2" fill="#818cf814"/><rect x="338" y="84" width="11" height="11" rx="2" fill="#818cf814"/><rect x="338" y="98" width="11" height="11" rx="2" fill="#818cf814"/><rect x="338" y="112" width="11" height="11" rx="2" fill="#818cf814"/><rect x="338" y="126" width="11" height="11" rx="2" fill="#818cf814"/><rect x="338" y="140" width="11" height="11" rx="2" fill="#818cf814"/><rect x="338" y="154" width="11" height="11" rx="2" fill="#818cf814"/><rect x="352" y="70" width="11" height="11" rx="2" fill="#818cf814"/><rect x="352" y="84" width="11" height="11" rx="2" fill="#818cf814"/><rect x="352" y="98" width="11" height="11" rx="2" fill="#818cf814"/><rect x="352" y="112" width="11" height="11" rx="2" fill="#818cf814"/><rect x="352" y="126" width="11" height="11" rx="2" fill="#818cf814"/><rect x="352" y="140" width="11" height="11" rx="2" fill="#818cf814"/><rect x="352" y="154" width="11" height="11" rx="2" fill="#818cf814"/><rect x="366" y="70" width="11" height="11" rx="2" fill="#818cf814"/><rect x="366" y="84" width="11" height="11" rx="2" fill="#818cf814"/><rect x="366" y="98" width="11" height="11" rx="2" fill="#818cf814"/><rect x="366" y="112" width="11" height="11" rx="2" fill="#818cf814"/><rect x="366" y="126" width="11" height="11" rx="2" fill="#818cf814"/><rect x="366" y="140" width="11" height="11" rx="2" fill="#818cf814"/><rect x="366" y="154" width="11" height="11" rx="2" fill="#818cf814"/><rect x="380" y="70" width="11" height="11" rx="2" fill="#818cf814"/><rect x="380" y="84" width="11" height="11" rx="2" fill="#818cf814"/><rect x="380" y="98" width="11" height="11" rx="2" fill="#818cf814"/><rect x="380" y="112" width="11" height="11" rx="2" fill="#818cf814"/><rect x="380" y="126" width="11" height="11" rx="2" fill="#818cf814"/><rect x="380" y="140" width="11" height="11" rx="2" fill="#818cf814"/><rect x="380" y="154" width="11" height="11" rx="2" fill="#818cf814"/><rect x="394" y="70" width="11" height="11" rx="2" fill="#818cf814"/><rect x="394" y="84" width="11" height="11" rx="2" fill="#818cf814"/><rect x="394" y="98" width="11" height="11" rx="2" fill="#818cf814"/><rect x="394" y="112" width="11" height="11" rx="2" fill="#818cf814"/><rect x="394" y="126" width="11" height="11" rx="2" fill="#818cf814"/><rect x="394" y="140" width="11" height="11" rx="2" fill="#818cf814"/><rect x="394" y="154" width="11" height="11" rx="2" fill="#818cf814"/><rect x="408" y="70" width="11" height="11" rx="2" fill="#818cf814"/><rect x="408" y="84" width="11" height="11" rx="2" fill="#818cf814"/><rect x="408" y="98" width="11" height="11" rx="2" fill="#818cf814"/><rect x="408" y="112" width="11" height="11" rx="2" fill="#818cf814"/><rect x="408" y="126" width="11" height="11" rx="2" fill="#818cf814"/><rect x="408" y="140" width="11" height="11" rx="2" fill="#818cf814"/><rect x="408" y="154" width="11" height="11" rx="2" fill="#818cf814"/><rect x="422" y="70" width="11" height="11" rx="2" fill="#818cf814"/><rect x="422" y="84" width="11" height="11" rx="2" fill="#818cf814"/><rect x="422" y="98" width="11" height="11" rx="2" fill="#818cf814"/><rect x="422" y="112" width="11" height="11" rx="2" fill="#818cf814"/><rect x="422" y="126" width="11" height="11" rx="2" fill="#818cf814"/><rect x="422" y="140" width="11" height="11" rx="2" fill="#818cf814"/><rect x="422" y="154" width="11" height="11" rx="2" fill="#818cf814"/><rect x="436" y="70" width="11" height="11" rx="2" fill="#818cf814"/><rect x="436" y="84" width="11" height="11" rx="2" fill="#818cf814"/><rect x="436" y="98" width="11" height="11" rx="2" fill="#818cf814"/><rect x="436" y="112" width="11" height="11" rx="2" fill="#818cf814"/><rect x="436" y="126" width="11" height="11" rx="2" fill="#818cf814"/><rect x="436" y="140" width="11" height="11" rx="2" fill="#818cf814"/><rect x="436" y="154" width="11" height="11" rx="2" fill="#818cf814"/><rect x="450" y="70" width="11" height="11" rx="2" fill="#818cf814"/><rect x="450" y="84" width="11" height="11" rx="2" fill="#818cf814"/><rect x="450" y="98" width="11" height="11" rx="2" fill="#818cf814"/><rect x="450" y="112" width="11" height="11" rx="2" fill="#818cf814"/><rect x="450" y="126" width="11" height="11" rx="2" fill="#818cf814"/><rect x="450" y="140" width="11" height="11" rx="2" fill="#818cf814"/><rect x="450" y="154" width="11" height="11" rx="2" fill="#818cf814"/><rect x="464" y="70" width="11" height="11" rx="2" fill="#818cf814"/><rect x="464" y="84" width="11" height="11" rx="2" fill="#818cf814"/><rect x="464" y="98" width="11" height="11" rx="2" fill="#818cf814"/><rect x="464" y="112" width="11" height="11" rx="2" fill="#818cf814"/><rect x="464" y="126" width="11" height="11" rx="2" fill="#818cf814"/><rect x="464" y="140" width="11" height="11" rx="2" fill="#818cf814"/><rect x="464" y="154" width="11" height="11" rx="2" fill="#818cf814"/><rect x="478" y="70" width="11" height="11" rx="2" fill="#818cf814"/><rect x="478" y="84" width="11" height="11" rx="2" fill="#818cf814"/><rect x="478" y="98" width="11" height="11" rx="2" fill="#818cf814"/><rect x="478" y="112" width="11" height="11" rx="2" fill="#818cf814"/><rect x="478" y="126" width="11" height="11" rx="2" fill="#818cf814"/><rect x="478" y="140" width="11" height="11" rx="2" fill="#818cf814"/><rect x="478" y="154" width="11" height="11" rx="2" fill="#818cf814"/><rect x="492" y="70" width="11" height="11" rx="2" fill="#818cf814"/><rect x="492" y="84" width="11" height="11" rx="2" fill="#818cf814"/><rect x="492" y="98" width="11" height="11" rx="2" fill="#818cf859"/><rect x="492" y="112" width="11" height="11" rx="2" fill="#818cf814"/><rect x="492" y="126" width="11" height="11" rx="2" fill="#818cf814"/><rect x="492" y="140" width="11" height="11" rx="2" fill="#818cf814"/><rect x="492" y="154" width="11" height="11" rx="2" fill="#818cf814"/><rect x="506" y="70" width="11" height="11" rx="2" fill="#818cf814"/><rect x="506" y="84" width="11" height="11" rx="2" fill="#818cf814"/><rect x="506" y="98" width="11" height="11" rx="2" fill="#818cf814"/><rect x="506" y="112" width="11" height="11" rx="2" fill="#818cf814"/><rect x="506" y="126" width="11" height="11" rx="2" fill="#818cf814"/><rect x="506" y="140" width="11" height="11" rx="2" fill="#818cf814"/><rect x="506" y="154" width="11" height="11" rx="2" fill="#818cf899"/><rect x="520" y="70" width="11" height="11" rx="2" fill="#818cf814"/><rect x="520" y="84" width="11" height="11" rx="2" fill="#818cf814"/><rect x="520" y="98" width="11" height="11" rx="2" fill="#818cf814"/><rect x="520" y="112" width="11" height="11" rx="2" fill="#818cf814"/><rect x="520" y="126" width="11" height="11" rx="2" fill="#818cf859"/><rect x="520" y="140" width="11" height="11" rx="2" fill="#818cf814"/><rect x="520" y="154" width="11" height="11" rx="2" fill="#818cf814"/><rect x="534" y="70" width="11" height="11" rx="2" fill="#818cf814"/><rect x="534" y="84" width="11" height="11" rx="2" fill="#818cf814"/><rect x="534" y="98" width="11" height="11" rx="2" fill="#818cf8"/><rect x="534" y="112" width="11" height="11" rx="2" fill="#818cf859"/><rect x="534" y="126" width="11" height="11" rx="2" fill="#818cf8"/><rect x="534" y="140" width="11" height="11" rx="2" fill="#818cf899"/><rect x="534" y="154" width="11" height="11" rx="2" fill="#818cf8"/><rect x="548" y="70" width="11" height="11" rx="2" fill="#818cf8"/><rect x="548" y="84" width="11" height="11" rx="2" fill="#818cf814"/><rect x="548" y="98" width="11" height="11" rx="2" fill="#818cf8"/><rect x="548" y="112" width="11" height="11" rx="2" fill="#818cf8"/><rect x="548" y="126" width="11" height="11" rx="2" fill="#818cf899"/><rect x="548" y="140" width="11" height="11" rx="2" fill="#818cf899"/><rect x="548" y="154" width="11" height="11" rx="2" fill="#818cf814"/><rect x="562" y="70" width="11" height="11" rx="2" fill="#818cf814"/><rect x="562" y="84" width="11" height="11" rx="2" fill="#818cf8"/><rect x="562" y="98" width="11" height="11" rx="2" fill="#818cf814"/><rect x="562" y="112" width="11" height="11" rx="2" fill="#818cf814"/><rect x="562" y="126" width="11" height="11" rx="2" fill="#818cf814"/><rect x="562" y="140" width="11" height="11" rx="2" fill="#818cf814"/><rect x="562" y="154" width="11" height="11" rx="2" fill="#818cf899"/><rect x="576" y="70" width="11" height="11" rx="2" fill="#818cf859"/><rect x="576" y="84" width="11" height="11" rx="2" fill="#818cf814"/><rect x="576" y="98" width="11" height="11" rx="2" fill="#818cf814"/><rect x="576" y="112" width="11" height="11" rx="2" fill="#818cf859"/><rect x="576" y="126" width="11" height="11" rx="2" fill="#818cf859"/><rect x="576" y="140" width="11" height="11" rx="2" fill="#818cf814"/><rect x="576" y="154" width="11" height="11" rx="2" fill="#818cf814"/><rect x="590" y="70" width="11" height="11" rx="2" fill="#818cf814"/><rect x="590" y="84" width="11" height="11" rx="2" fill="#818cf859"/><rect x="590" y="98" width="11" height="11" rx="2" fill="#818cf814"/><rect x="590" y="112" width="11" height="11" rx="2" fill="#818cf814"/><rect x="590" y="126" width="11" height="11" rx="2" fill="#818cf899"/><rect x="590" y="140" width="11" height="11" rx="2" fill="#818cf8"/><rect x="590" y="154" width="11" height="11" rx="2" fill="#818cf8"/><rect x="604" y="70" width="11" height="11" rx="2" fill="#818cf8"/><rect x="604" y="84" width="11" height="11" rx="2" fill="#818cf8"/><rect x="604" y="98" width="11" height="11" rx="2" fill="#818cf8"/><rect x="604" y="112" width="11" height="11" rx="2" fill="#818cf8"/><rect x="604" y="126" width="11" height="11" rx="2" fill="#818cf859"/><rect x="604" y="140" width="11" height="11" rx="2" fill="#818cf859"/><rect x="604" y="154" width="11" height="11" rx="2" fill="#818cf814"/><rect x="618" y="70" width="11" height="11" rx="2" fill="#818cf814"/><rect x="618" y="84" width="11" height="11" rx="2" fill="#818cf814"/><rect x="618" y="98" width="11" height="11" rx="2" fill="#818cf814"/><rect x="618" y="112" width="11" height="11" rx="2" fill="#818cf814"/><rect x="618" y="126" width="11" height="11" rx="2" fill="#818cf8"/><rect x="618" y="140" width="11" height="11" rx="2" fill="#818cf814"/><rect x="618" y="154" width="11" height="11" rx="2" fill="#818cf814"/><rect x="632" y="70" width="11" height="11" rx="2" fill="#818cf814"/><rect x="632" y="84" width="11" height="11" rx="2" fill="#818cf814"/><rect x="632" y="98" width="11" height="11" rx="2" fill="#818cf899"/><rect x="632" y="112" width="11" height="11" rx="2" fill="#818cf814"/><rect x="632" y="126" width="11" height="11" rx="2" fill="#818cf859"/><rect x="632" y="140" width="11" height="11" rx="2" fill="#818cf8"/><rect x="632" y="154" width="11" height="11" rx="2" fill="#818cf899"/><rect x="646" y="70" width="11" height="11" rx="2" fill="#818cf8"/><rect x="646" y="84" width="11" height="11" rx="2" fill="#818cf8"/><rect x="646" y="98" width="11" height="11" rx="2" fill="#818cf859"/><rect x="646" y="112" width="11" height="11" rx="2" fill="#818cf899"/><rect x="646" y="126" width="11" height="11" rx="2" fill="#818cf859"/><rect x="646" y="140" width="11" height="11" rx="2" fill="#818cf8"/><rect x="646" y="154" width="11" height="11" rx="2" fill="#818cf814"/><rect x="660" y="70" width="11" height="11" rx="2" fill="#818cf814"/><rect x="660" y="84" width="11" height="11" rx="2" fill="#818cf899"/><rect x="660" y="98" width="11" height="11" rx="2" fill="#818cf859"/><rect x="660" y="112" width="11" height="11" rx="2" fill="#818cf8"/><rect x="660" y="126" width="11" height="11" rx="2" fill="#818cf8"/><rect x="660" y="140" width="11" height="11" rx="2" fill="#818cf8"/><rect x="660" y="154" width="11" height="11" rx="2" fill="#818cf8"/><rect x="674" y="70" width="11" height="11" rx="2" fill="#818cf814"/><rect x="674" y="84" width="11" height="11" rx="2" fill="#818cf814"/><rect x="674" y="98" width="11" height="11" rx="2" fill="#818cf8"/><rect x="674" y="112" width="11" height="11" rx="2" fill="#818cf814"/><rect x="674" y="126" width="11" height="11" rx="2" fill="#818cf814"/><rect x="674" y="140" width="11" height="11" rx="2" fill="#818cf859"/><rect x="674" y="154" width="11" height="11" rx="2" fill="#818cf814"/><rect x="688" y="70" width="11" height="11" rx="2" fill="#818cf814"/><rect x="688" y="84" width="11" height="11" rx="2" fill="#818cf814"/><rect x="688" y="98" width="11" height="11" rx="2" fill="#818cf814"/><rect x="688" y="112" width="11" height="11" rx="2" fill="#818cf859"/><rect x="688" y="126" width="11" height="11" rx="2" fill="#818cf814"/><rect x="688" y="140" width="11" height="11" rx="2" fill="#818cf814"/><rect x="688" y="154" width="11" height="11" rx="2" fill="#818cf814"/><rect x="702" y="70" width="11" height="11" rx="2" fill="#818cf814"/><rect x="702" y="84" width="11" height="11" rx="2" fill="#818cf814"/><rect x="702" y="98" width="11" height="11" rx="2" fill="#818cf814"/><rect x="702" y="112" width="11" height="11" rx="2" fill="#818cf859"/><rect x="702" y="126" width="11" height="11" rx="2" fill="#818cf899"/><rect x="702" y="140" width="11" height="11" rx="2" fill="#818cf814"/><rect x="702" y="154" width="11" height="11" rx="2" fill="#818cf814"/><rect x="716" y="70" width="11" height="11" rx="2" fill="#818cf814"/><rect x="716" y="84" width="11" height="11" rx="2" fill="#818cf814"/><rect x="716" y="98" width="11" height="11" rx="2" fill="#818cf814"/><rect x="716" y="112" width="11" height="11" rx="2" fill="#818cf814"/><rect x="716" y="126" width="11" height="11" rx="2" fill="#818cf814"/><rect x="716" y="140" width="11" height="11" rx="2" fill="#818cf814"/><rect x="716" y="154" width="11" height="11" rx="2" fill="#818cf859"/><rect x="730" y="70" width="11" height="11" rx="2" fill="#818cf859"/><rect x="730" y="84" width="11" height="11" rx="2" fill="#818cf8"/><rect x="730" y="98" width="11" height="11" rx="2" fill="#818cf814"/><rect x="730" y="112" width="11" height="11" rx="2" fill="#818cf814"/><rect x="730" y="126" width="11" height="11" rx="2" fill="#818cf859"/><rect x="730" y="140" width="11" height="11" rx="2" fill="#818cf859"/><rect x="730" y="154" width="11" height="11" rx="2" fill="#818cf814"/><rect x="744" y="70" width="11" height="11" rx="2" fill="#818cf814"/><rect x="744" y="84" width="11" height="11" rx="2" fill="#818cf8"/><rect x="744" y="98" width="11" height="11" rx="2" fill="#818cf8"/><rect x="744" y="112" width="11" height="11" rx="2" fill="#818cf8"/><rect x="744" y="126" width="11" height="11" rx="2" fill="#818cf859"/><rect x="744" y="140" width="11" height="11" rx="2" fill="#818cf859"/><rect x="744" y="154" width="11" height="11" rx="2" fill="#818cf859"/><rect x="758" y="70" width="11" height="11" rx="2" fill="#818cf814"/><rect x="758" y="84" width="11" height="11" rx="2" fill="#818cf814"/><rect x="758" y="98" width="11" height="11" rx="2" fill="#818cf8"/><rect x="758" y="112" width="11" height="11" rx="2" fill="#818cf859"/><rect x="758" y="126" width="11" height="11" rx="2" fill="#818cf8"/><rect x="758" y="140" width="11" height="11" rx="2" fill="#818cf8"/><rect x="758" y="154" width="11" height="11" rx="2" fill="#818cf859"/>
  
  <text x="846" y="188" font-family="sans-serif" font-size="10" fill="#a5b4fc88" text-anchor="end">reposkins.pro</text>
</svg>